<svg version="1.0" xmlns="http://www.w3.org/2000/svg" width="266.667" height="266.667" viewBox="0 0 200 200"><path d="M96.2 1.6C94.1 3 94 3.8 94 17.6c0 10.7-.3 14.6-1.2 14.8-.7.2-3.8.8-6.8 1.4-8.2 1.5-16.4 4.9-23.5 9.6l-6.3 4.3-3.4-3.2c-4.7-4.7-7.2-5.2-10.3-2.1-3.4 3.4-3.2 5 1.4 9.8l3.8 4.2-4.3 6.5c-4.9 7.2-8.1 14.9-9.6 23.1-.6 3-1.2 6.1-1.4 6.7-.2 1-4 1.3-14.4 1.3-12.7 0-14.2.2-16 2-2.4 2.4-2.5 4.9-.6 7.6 1.3 1.7 3.1 2 16.2 2.4l14.8.5 1.2 6.5c1.5 8.5 5.4 17.7 10.2 24.9l4 5.7-3.9 4.2c-4.6 4.8-4.8 6.4-1.4 9.7 3.3 3.4 4.9 3.2 9.7-1.4l4.2-3.9 5.9 4.1c7.2 4.9 18.7 9.4 26.1 10.3l5.6.7v14.3c0 13.1.2 14.6 2 16.4 1.1 1.1 2.9 2 4 2s2.9-.9 4-2c1.8-1.8 2-3.3 2-16.4v-14.3l5.6-.7c7.5-.9 18.5-5.3 25.9-10.3l6.1-4.1 4.1 3.9c4.9 4.6 6.5 4.8 9.8 1.4 3.4-3.3 3.2-4.9-1.4-9.7l-3.9-4.2 4-5.7c4.8-7.2 8.7-16.4 10.2-24.9l1.2-6.5 14.8-.5c13.1-.4 14.9-.7 16.2-2.4 1.8-2.5 1.8-4.7 0-7.2-1.3-1.7-3.1-2-16.2-2.4l-14.8-.5-1.2-6.5c-1.5-8.4-5.3-17.6-10.2-24.9l-3.9-5.8 3.9-4.1c4.3-4.6 4.7-7.3 1.8-10.2-2.9-2.9-5.6-2.5-10.2 1.8l-4.1 3.8-6.3-4.2c-8.1-5.5-14.6-7.9-28.6-10.9L106 32V18c0-12.7-.2-14.2-2-16-2.4-2.4-4.8-2.5-7.8-.4zm-10.6 65c9.4 4.5 11.1 17.8 3.1 23.8-6.4 4.8-13.8 4.3-19.2-1.4-4-4.2-4.7-12.1-1.3-17 2.5-3.8 7.9-7 11.6-7 1.3 0 3.9.7 5.8 1.6z"/></svg>